<svg width="23" height="23" viewBox="0 0 23 23" fill="none" xmlns="http://www.w3.org/2000/svg">
<circle cx="11.5" cy="11.5" r="10" fill="#F2F3F3"/>
<path d="M8.884 15.947L11.185 13.542C11.6097 13.1087 11.9347 12.762 12.16 12.502C12.3853 12.2333 12.5673 11.956 12.706 11.67C12.8447 11.384 12.914 11.085 12.914 10.773C12.914 10.279 12.7797 9.928 12.511 9.72C12.2423 9.50333 11.8177 9.395 11.237 9.395C10.665 9.395 10.0367 9.46 9.352 9.59L9.027 9.655L8.936 8.641C9.80267 8.39833 10.665 8.277 11.523 8.277C12.4157 8.277 13.083 8.472 13.525 8.862C13.967 9.24333 14.188 9.83267 14.188 10.63C14.188 11.046 14.1273 11.4187 14.006 11.748C13.8933 12.0687 13.707 12.398 13.447 12.736C13.1957 13.0653 12.8317 13.451 12.355 13.893L10.314 15.921H14.396V17H8.884V15.947Z" fill="#0C0D0D"/>
</svg>
