<svg width="23" height="23" viewBox="0 0 23 23" fill="none" xmlns="http://www.w3.org/2000/svg">
<circle cx="11.5" cy="11.5" r="10" fill="#F2F3F3"/>
<path d="M11.588 17.143C10.8773 17.143 10.08 17.0477 9.196 16.857L8.78 16.753L8.871 15.765C9.833 15.9643 10.613 16.064 11.211 16.064C11.8263 16.064 12.303 15.9513 12.641 15.726C12.979 15.492 13.148 15.1063 13.148 14.569C13.148 14.0923 13.0093 13.7327 12.732 13.49C12.4633 13.2473 12.0647 13.1173 11.536 13.1H9.807V12.047H11.536C11.7613 12.047 11.9823 11.9863 12.199 11.865C12.4243 11.735 12.6063 11.5573 12.745 11.332C12.8837 11.1067 12.953 10.8553 12.953 10.578C12.953 10.1533 12.823 9.84567 12.563 9.655C12.3117 9.46433 11.8913 9.369 11.302 9.369C10.73 9.369 10.0757 9.434 9.339 9.564L9.001 9.629L8.897 8.667C9.703 8.407 10.5783 8.277 11.523 8.277C12.4677 8.277 13.1523 8.459 13.577 8.823C14.0103 9.17833 14.227 9.746 14.227 10.526C14.227 10.968 14.123 11.358 13.915 11.696C13.7157 12.034 13.4253 12.2983 13.044 12.489C13.382 12.6277 13.6463 12.775 13.837 12.931C14.0363 13.087 14.1837 13.2907 14.279 13.542C14.3743 13.7847 14.422 14.1097 14.422 14.517C14.422 15.4097 14.1923 16.0727 13.733 16.506C13.2823 16.9307 12.5673 17.143 11.588 17.143Z" fill="#0C0D0D"/>
</svg>
