<svg width="66" height="67" viewBox="0 0 66 67" fill="none" xmlns="http://www.w3.org/2000/svg">
<circle cx="33" cy="33.5" r="33" fill="#EBF9F1"/>
<path d="M32.9944 49.4999C32.8891 49.4999 32.7824 49.4746 32.6864 49.424L17.3667 41.4255C17.1467 41.3108 17.0081 41.0829 17.0081 40.8349V25.8378C17.0081 25.6071 17.128 25.3925 17.324 25.2712C17.52 25.1499 17.7666 25.1392 17.9719 25.2419L33.2916 32.9071C33.5169 33.0204 33.6596 33.251 33.6596 33.503V48.8334C33.6596 49.0667 33.5383 49.2827 33.3383 49.404C33.2343 49.4679 33.1143 49.4999 32.9944 49.4999ZM18.3411 40.431L32.3278 47.7336V33.9149L18.3411 26.9162V40.431Z" fill="#1B5E37"/>
<path d="M33.0154 49.5C32.8954 49.5 32.7755 49.468 32.6701 49.404C32.4715 49.2827 32.3489 49.0667 32.3489 48.8334V33.503C32.3489 33.251 32.4915 33.0204 32.7168 32.9071L48.0366 25.2419C48.2405 25.1379 48.4885 25.1486 48.6845 25.2712C48.8817 25.3925 49.0017 25.6071 49.0017 25.8378V40.8349C49.0017 41.0829 48.8631 41.3108 48.6431 41.4255L33.3234 49.424C33.2274 49.4746 33.1207 49.5 33.0154 49.5ZM33.682 33.9149V47.7336L47.6686 40.431V26.9162L33.682 33.9149ZM48.3352 40.8349H48.3485H48.3352Z" fill="#1B5E37"/>
<path d="M17.6745 26.5045C17.4292 26.5045 17.1946 26.3698 17.0773 26.1365C16.912 25.8073 17.0466 25.4073 17.3759 25.242L32.717 17.5768C32.905 17.4835 33.1263 17.4835 33.3129 17.5768L48.6327 25.242C48.9619 25.4073 49.0952 25.8073 48.9313 26.1365C48.766 26.4658 48.3674 26.5978 48.0368 26.4351L33.0156 18.9179L17.9731 26.4338C17.8771 26.4818 17.7758 26.5045 17.6745 26.5045Z" fill="#1B5E37"/>
<path d="M41.0036 37.5023C40.6357 37.5023 40.3371 37.2037 40.3371 36.8358V29.9158L25.3852 22.4345C25.056 22.2706 24.9226 21.8693 25.0879 21.54C25.2532 21.2108 25.6532 21.0788 25.9824 21.2414L41.3022 28.9066C41.5275 29.0213 41.6701 29.2519 41.6701 29.5038V36.8358C41.6701 37.2037 41.3715 37.5023 41.0036 37.5023Z" fill="#1B5E37"/>
</svg>
