<svg width="44" height="31" viewBox="0 0 44 31" fill="none" xmlns="http://www.w3.org/2000/svg">
<rect width="44" height="31" rx="4" fill="white" fill-opacity="0.1"/>
<rect x="0.5" y="0.5" width="43" height="30" rx="3.5" stroke="#CACECE" stroke-opacity="0.4"/>
<path d="M29.3 12.5914C29.3 12.7498 29.2417 12.9081 29.1167 13.0331C28.875 13.2748 28.475 13.2748 28.2333 13.0331L24.0583 8.85811C23.8167 8.61644 23.8167 8.21644 24.0583 7.97477C24.3 7.7331 24.7 7.7331 24.9417 7.97477L29.1167 12.1498C29.2333 12.2748 29.3 12.4331 29.3 12.5914Z" fill="#949D9E"/>
<path d="M25.1166 8.41683V22.5835C25.1166 22.9252 24.8333 23.2085 24.4916 23.2085C24.15 23.2085 23.8666 22.9252 23.8666 22.5835V8.41683C23.8666 8.07516 24.15 7.79183 24.4916 7.79183C24.8333 7.79183 25.1166 8.07516 25.1166 8.41683Z" fill="#949D9E"/>
<path d="M20.1333 22.5831C20.1333 22.7415 20.075 22.8998 19.95 23.0248C19.7083 23.2665 19.3083 23.2665 19.0666 23.0248L14.8916 18.8498C14.65 18.6081 14.65 18.2081 14.8916 17.9665C15.1333 17.7248 15.5333 17.7248 15.775 17.9665L19.95 22.1415C20.0666 22.2581 20.1333 22.4248 20.1333 22.5831Z" fill="#949D9E"/>
<path d="M20.1334 8.41683V22.5835C20.1334 22.9252 19.85 23.2085 19.5084 23.2085C19.1667 23.2085 18.8834 22.9252 18.8834 22.5835V8.41683C18.8834 8.07516 19.1667 7.79183 19.5084 7.79183C19.85 7.79183 20.1334 8.07516 20.1334 8.41683Z" fill="#949D9E"/>
</svg>
